<svg width="18" height="24" viewBox="0 0 18 24" fill="none" xmlns="http://www.w3.org/2000/svg">
<g id="icon (15) 1">
<path id="Vector" fill-rule="evenodd" clip-rule="evenodd" d="M2.88541 4.51019C3.06038 4.33547 3.27048 4.19994 3.50179 4.11257C3.7331 4.02519 3.98033 3.98798 4.22711 4.00339C4.47389 4.01881 4.71457 4.08649 4.93321 4.20197C5.15185 4.31744 5.34346 4.47807 5.49533 4.6732L7.29027 6.97931C7.61926 7.40233 7.73526 7.95335 7.60526 8.47338L7.05828 10.6635C7.0302 10.7769 7.03182 10.8957 7.063 11.0083C7.09418 11.121 7.15386 11.2237 7.23628 11.3065L9.6932 13.7636C9.77614 13.8462 9.879 13.906 9.99182 13.9372C10.1046 13.9684 10.2236 13.9699 10.3372 13.9416L12.5261 13.3946C12.7827 13.3308 13.0505 13.326 13.3093 13.3806C13.568 13.4351 13.811 13.5476 14.0201 13.7096L16.326 15.5037C17.155 16.1487 17.231 17.3738 16.489 18.1148L15.455 19.1489C14.715 19.8889 13.6091 20.2139 12.5781 19.8509C9.93886 18.9234 7.54281 17.4125 5.56833 15.4307C3.58676 13.4564 2.07599 11.0605 1.14847 8.42137C0.786478 7.39133 1.11147 6.28428 1.85144 5.54424L2.88541 4.51019Z" fill="white"/>
</g>
</svg>
