<svg width="29" height="30" viewBox="0 0 29 30" fill="none" xmlns="http://www.w3.org/2000/svg">
<g id="icon (7) 1">
<path id="Vector" fill-rule="evenodd" clip-rule="evenodd" d="M4.53125 22.25C4.53125 22.0096 4.62673 21.7791 4.79668 21.6092C4.96664 21.4392 5.19715 21.3438 5.4375 21.3438H23.5625C23.8029 21.3438 24.0334 21.4392 24.2033 21.6092C24.3733 21.7791 24.4688 22.0096 24.4688 22.25C24.4688 22.4904 24.3733 22.7209 24.2033 22.8908C24.0334 23.0608 23.8029 23.1562 23.5625 23.1562H5.4375C5.19715 23.1562 4.96664 23.0608 4.79668 22.8908C4.62673 22.7209 4.53125 22.4904 4.53125 22.25ZM4.53125 15C4.53125 14.7596 4.62673 14.5291 4.79668 14.3592C4.96664 14.1892 5.19715 14.0938 5.4375 14.0938H23.5625C23.8029 14.0938 24.0334 14.1892 24.2033 14.3592C24.3733 14.5291 24.4688 14.7596 24.4688 15C24.4688 15.2404 24.3733 15.4709 24.2033 15.6408C24.0334 15.8108 23.8029 15.9062 23.5625 15.9062H5.4375C5.19715 15.9062 4.96664 15.8108 4.79668 15.6408C4.62673 15.4709 4.53125 15.2404 4.53125 15ZM4.53125 7.75C4.53125 7.50965 4.62673 7.27914 4.79668 7.10918C4.96664 6.93923 5.19715 6.84375 5.4375 6.84375H23.5625C23.8029 6.84375 24.0334 6.93923 24.2033 7.10918C24.3733 7.27914 24.4688 7.50965 24.4688 7.75C24.4688 7.99035 24.3733 8.22086 24.2033 8.39082C24.0334 8.56077 23.8029 8.65625 23.5625 8.65625H5.4375C5.19715 8.65625 4.96664 8.56077 4.79668 8.39082C4.62673 8.22086 4.53125 7.99035 4.53125 7.75Z" fill="white"/>
</g>
</svg>
