<svg width="31" height="31" viewBox="0 0 31 31" fill="none" xmlns="http://www.w3.org/2000/svg">
<g id="Instagram">
<path id="Vector" d="M21.958 3.04346H9.04134C5.4745 3.04346 2.58301 5.84168 2.58301 9.29346V21.7935C2.58301 25.2452 5.4745 28.0435 9.04134 28.0435H21.958C25.5248 28.0435 28.4163 25.2452 28.4163 21.7935V9.29346C28.4163 5.84168 25.5248 3.04346 21.958 3.04346Z" stroke="white" stroke-width="2" stroke-linecap="round" stroke-linejoin="round"/>
<path id="Vector_2" d="M20.6671 14.7558C20.8265 15.7962 20.6429 16.8586 20.1424 17.7921C19.6419 18.7256 18.8499 19.4826 17.8792 19.9554C16.9085 20.4283 15.8084 20.5928 14.7355 20.4258C13.6626 20.2587 12.6714 19.7684 11.9029 19.0248C11.1345 18.2811 10.6279 17.3219 10.4553 16.2836C10.2826 15.2453 10.4527 14.1807 10.9413 13.2413C11.4299 12.3019 12.2121 11.5355 13.1767 11.0511C14.1413 10.5668 15.2392 10.3891 16.3142 10.5433C17.4107 10.7007 18.4259 11.1952 19.2097 11.9537C19.9935 12.7123 20.5045 13.6947 20.6671 14.7558Z" stroke="white" stroke-width="2" stroke-linecap="round" stroke-linejoin="round"/>
<path id="Vector_3" d="M22.6045 8.66846H22.6166" stroke="white" stroke-width="2" stroke-linecap="round" stroke-linejoin="round"/>
</g>
</svg>
