<svg width="22" height="22" viewBox="0 0 22 22" fill="none" xmlns="http://www.w3.org/2000/svg">
<g id="icon (19) 1">
<g id="Group">
<path id="Vector" fill-rule="evenodd" clip-rule="evenodd" d="M17.875 11C17.875 10.8177 17.8026 10.6428 17.6736 10.5139C17.5447 10.3849 17.3698 10.3125 17.1875 10.3125H7.84713L10.7993 7.36176C10.9284 7.23267 11.0009 7.05758 11.0009 6.87501C11.0009 6.69245 10.9284 6.51736 10.7993 6.38826C10.6702 6.25917 10.4951 6.18665 10.3125 6.18665C10.1299 6.18665 9.95485 6.25917 9.82576 6.38826L5.70076 10.5133C5.63673 10.5771 5.58594 10.653 5.55128 10.7365C5.51662 10.82 5.49878 10.9096 5.49878 11C5.49878 11.0904 5.51662 11.18 5.55128 11.2635C5.58594 11.347 5.63673 11.4229 5.70076 11.4868L9.82576 15.6118C9.95485 15.7409 10.1299 15.8134 10.3125 15.8134C10.4951 15.8134 10.6702 15.7409 10.7993 15.6118C10.9284 15.4827 11.0009 15.3076 11.0009 15.125C11.0009 14.9424 10.9284 14.7674 10.7993 14.6383L7.84713 11.6875H17.1875C17.3698 11.6875 17.5447 11.6151 17.6736 11.4862C17.8026 11.3572 17.875 11.1824 17.875 11Z" fill="white"/>
<path id="Vector_2" fill-rule="evenodd" clip-rule="evenodd" d="M4.8125 5.5C4.63016 5.5 4.4553 5.57243 4.32636 5.70136C4.19743 5.8303 4.125 6.00516 4.125 6.1875V15.8125C4.125 15.9948 4.19743 16.1697 4.32636 16.2986C4.4553 16.4276 4.63016 16.5 4.8125 16.5C4.99484 16.5 5.1697 16.4276 5.29864 16.2986C5.42757 16.1697 5.5 15.9948 5.5 15.8125V6.1875C5.5 6.00516 5.42757 5.8303 5.29864 5.70136C5.1697 5.57243 4.99484 5.5 4.8125 5.5Z" fill="white"/>
</g>
</g>
</svg>
