<svg width="18" height="24" viewBox="0 0 18 24" fill="none" xmlns="http://www.w3.org/2000/svg">
<g id="icon (17) 1">
<path id="Vector" d="M9 16.25C10.0609 16.25 11.0783 15.8022 11.8284 15.0052C12.5786 14.2082 13 13.1272 13 12C13 10.8728 12.5786 9.79183 11.8284 8.9948C11.0783 8.19777 10.0609 7.75 9 7.75C7.93913 7.75 6.92172 8.19777 6.17157 8.9948C5.42143 9.79183 5 10.8728 5 12C5 13.1272 5.42143 14.2082 6.17157 15.0052C6.92172 15.8022 7.93913 16.25 9 16.25ZM9 3.5C9.13261 3.5 9.25979 3.55597 9.35355 3.6556C9.44732 3.75523 9.5 3.89035 9.5 4.03125V6.15625C9.5 6.29715 9.44732 6.43227 9.35355 6.5319C9.25979 6.63153 9.13261 6.6875 9 6.6875C8.86739 6.6875 8.74021 6.63153 8.64645 6.5319C8.55268 6.43227 8.5 6.29715 8.5 6.15625V4.03125C8.5 3.89035 8.55268 3.75523 8.64645 3.6556C8.74021 3.55597 8.86739 3.5 9 3.5ZM9 17.3125C9.13261 17.3125 9.25979 17.3685 9.35355 17.4681C9.44732 17.5677 9.5 17.7029 9.5 17.8438V19.9688C9.5 20.1096 9.44732 20.2448 9.35355 20.3444C9.25979 20.444 9.13261 20.5 9 20.5C8.86739 20.5 8.74021 20.444 8.64645 20.3444C8.55268 20.2448 8.5 20.1096 8.5 19.9688V17.8438C8.5 17.7029 8.55268 17.5677 8.64645 17.4681C8.74021 17.3685 8.86739 17.3125 9 17.3125ZM17 12C17 12.1409 16.9473 12.276 16.8536 12.3757C16.7598 12.4753 16.6326 12.5312 16.5 12.5312H14.5C14.3674 12.5312 14.2402 12.4753 14.1464 12.3757C14.0527 12.276 14 12.1409 14 12C14 11.8591 14.0527 11.724 14.1464 11.6243C14.2402 11.5247 14.3674 11.4688 14.5 11.4688H16.5C16.6326 11.4688 16.7598 11.5247 16.8536 11.6243C16.9473 11.724 17 11.8591 17 12ZM4 12C4 12.1409 3.94732 12.276 3.85355 12.3757C3.75979 12.4753 3.63261 12.5312 3.5 12.5312H1.5C1.36739 12.5312 1.24021 12.4753 1.14645 12.3757C1.05268 12.276 1 12.1409 1 12C1 11.8591 1.05268 11.724 1.14645 11.6243C1.24021 11.5247 1.36739 11.4688 1.5 11.4688H3.5C3.63261 11.4688 3.75979 11.5247 3.85355 11.6243C3.94732 11.724 4 11.8591 4 12ZM14.657 5.98944C14.7507 6.08906 14.8034 6.22416 14.8034 6.36503C14.8034 6.5059 14.7507 6.641 14.657 6.74062L13.243 8.24406C13.1965 8.29339 13.1413 8.3325 13.0806 8.35917C13.0199 8.38583 12.9548 8.39953 12.8891 8.39948C12.7565 8.39938 12.6293 8.34329 12.5355 8.24353C12.4891 8.19414 12.4523 8.13551 12.4272 8.071C12.4021 8.0065 12.3892 7.93737 12.3892 7.86756C12.3893 7.72659 12.4421 7.59143 12.536 7.49181L13.95 5.98944C14.0438 5.88984 14.1709 5.83389 14.3035 5.83389C14.4361 5.83389 14.5632 5.88984 14.657 5.98944ZM5.464 15.757C5.55774 15.8566 5.61039 15.9917 5.61039 16.1326C5.61039 16.2735 5.55774 16.4086 5.464 16.5082L4.05 18.0106C3.9557 18.1073 3.8294 18.1609 3.6983 18.1597C3.5672 18.1585 3.44179 18.1026 3.34909 18.0041C3.25639 17.9056 3.2038 17.7723 3.20266 17.6331C3.20152 17.4938 3.25192 17.3596 3.343 17.2594L4.757 15.757C4.85076 15.6574 4.97792 15.6015 5.1105 15.6015C5.24308 15.6015 5.37024 15.6574 5.464 15.757ZM14.657 18.0106C14.5632 18.1102 14.4361 18.1661 14.3035 18.1661C14.1709 18.1661 14.0438 18.1102 13.95 18.0106L12.536 16.5082C12.4449 16.408 12.3945 16.2738 12.3957 16.1345C12.3968 15.9952 12.4494 15.862 12.5421 15.7635C12.6348 15.665 12.7602 15.6091 12.8913 15.6079C13.0224 15.6067 13.1487 15.6602 13.243 15.757L14.657 17.2594C14.7507 17.359 14.8034 17.4941 14.8034 17.635C14.8034 17.7758 14.7507 17.9109 14.657 18.0106ZM5.464 8.24406C5.37024 8.34366 5.24308 8.39961 5.1105 8.39961C4.97792 8.39961 4.85076 8.34366 4.757 8.24406L3.343 6.74062C3.29524 6.69162 3.25715 6.633 3.23095 6.56818C3.20474 6.50337 3.19095 6.43366 3.19037 6.36312C3.1898 6.29258 3.20245 6.22263 3.22759 6.15734C3.25273 6.09205 3.28986 6.03273 3.3368 5.98285C3.38375 5.93297 3.43957 5.89353 3.50102 5.86681C3.56247 5.8401 3.62831 5.82666 3.6947 5.82727C3.76109 5.82789 3.8267 5.84254 3.8877 5.87038C3.9487 5.89823 4.00388 5.9387 4.05 5.98944L5.464 7.49181C5.51056 7.54116 5.54751 7.59978 5.57271 7.66433C5.59792 7.72887 5.61089 7.79806 5.61089 7.86794C5.61089 7.93782 5.59792 8.00701 5.57271 8.07155C5.54751 8.13609 5.51056 8.19471 5.464 8.24406Z" fill="white"/>
</g>
</svg>
