<svg width="32" height="33" viewBox="0 0 32 33" fill="none" xmlns="http://www.w3.org/2000/svg">
<path d="M16.6004 4.06836C11.4704 4.06836 6.40039 7.48836 6.40039 13.0234C6.40039 16.5434 8.38039 18.5434 9.58039 18.5434C10.0754 18.5434 10.3604 17.1634 10.3604 16.7734C10.3604 16.3084 9.17539 15.3184 9.17539 13.3834C9.17539 9.36336 12.2354 6.51336 16.1954 6.51336C19.6004 6.51336 22.1204 8.44836 22.1204 12.0034C22.1204 14.6584 21.0554 19.6384 17.6054 19.6384C16.3604 19.6384 15.2954 18.7384 15.2954 17.4484C15.2954 15.5584 16.6154 13.7284 16.6154 11.7784C16.6154 8.46836 11.9204 9.06836 11.9204 13.0684C11.9204 13.9084 12.0254 14.8384 12.4004 15.6034C11.7104 18.5734 10.3004 22.9984 10.3004 26.0584C10.3004 27.0034 10.4354 27.9334 10.5254 28.8784C10.6954 29.0684 10.6104 29.0484 10.8704 28.9534C13.3904 25.5034 13.3004 24.8284 14.4404 20.3134C15.0554 21.4834 16.6454 22.1134 17.9054 22.1134C23.2154 22.1134 25.6004 16.9384 25.6004 12.2734C25.6004 7.30836 21.3104 4.06836 16.6004 4.06836Z" fill="white"/>
</svg>
