<svg width="24" height="24" viewBox="0 0 24 24" fill="none" xmlns="http://www.w3.org/2000/svg">
<g id="Profile">
<rect x="0.5" y="0.5" width="23" height="23" rx="11.5" stroke="white"/>
<path id="Vector" d="M7 18C7 18 6 18 6 17C6 16 7 13 12 13C17 13 18 16 18 17C18 18 17 18 17 18H7ZM12 12C12.7956 12 13.5587 11.6839 14.1213 11.1213C14.6839 10.5587 15 9.79565 15 9C15 8.20435 14.6839 7.44129 14.1213 6.87868C13.5587 6.31607 12.7956 6 12 6C11.2044 6 10.4413 6.31607 9.87868 6.87868C9.31607 7.44129 9 8.20435 9 9C9 9.79565 9.31607 10.5587 9.87868 11.1213C10.4413 11.6839 11.2044 12 12 12Z" fill="#FAFBE6"/>
</g>
</svg>
