<svg width="11" height="13" viewBox="0 0 11 13" fill="none" xmlns="http://www.w3.org/2000/svg">
<g id="Frame 171">
<g id="Ellipse 1">
<mask id="path-1-inside-1_2277_1078" fill="white">
<path d="M9.99976 5.5C9.99976 8.26142 7.76118 10.5 4.99976 10.5C2.23833 10.5 -0.000244141 8.26142 -0.000244141 5.5C-0.000244141 2.73858 2.23833 0.5 4.99976 0.5C7.76118 0.5 9.99976 2.73858 9.99976 5.5ZM0.603027 5.5C0.603027 7.92825 2.57151 9.89673 4.99976 9.89673C7.428 9.89673 9.39648 7.92825 9.39648 5.5C9.39648 3.07175 7.428 1.10327 4.99976 1.10327C2.57151 1.10327 0.603027 3.07175 0.603027 5.5Z"/>
</mask>
<path d="M9.99976 5.5C9.99976 8.26142 7.76118 10.5 4.99976 10.5C2.23833 10.5 -0.000244141 8.26142 -0.000244141 5.5C-0.000244141 2.73858 2.23833 0.5 4.99976 0.5C7.76118 0.5 9.99976 2.73858 9.99976 5.5ZM0.603027 5.5C0.603027 7.92825 2.57151 9.89673 4.99976 9.89673C7.428 9.89673 9.39648 7.92825 9.39648 5.5C9.39648 3.07175 7.428 1.10327 4.99976 1.10327C2.57151 1.10327 0.603027 3.07175 0.603027 5.5Z" fill="black" stroke="black" stroke-width="1.125" mask="url(#path-1-inside-1_2277_1078)"/>
</g>
<path id="Line 1" d="M8.08179 9.5L10.1077 12.2745" stroke="black" stroke-width="0.5625" stroke-linecap="round"/>
</g>
</svg>
