<svg width="11" height="13" viewBox="0 0 11 13" fill="none" xmlns="http://www.w3.org/2000/svg">
<mask id="path-1-inside-1_2141_3209" fill="white">
<path d="M10 5.5C10 8.26142 7.76142 10.5 5 10.5C2.23858 10.5 0 8.26142 0 5.5C0 2.73858 2.23858 0.5 5 0.5C7.76142 0.5 10 2.73858 10 5.5ZM0.603271 5.5C0.603271 7.92825 2.57175 9.89673 5 9.89673C7.42825 9.89673 9.39673 7.92825 9.39673 5.5C9.39673 3.07175 7.42825 1.10327 5 1.10327C2.57175 1.10327 0.603271 3.07175 0.603271 5.5Z"/>
</mask>
<path d="M10 5.5C10 8.26142 7.76142 10.5 5 10.5C2.23858 10.5 0 8.26142 0 5.5C0 2.73858 2.23858 0.5 5 0.5C7.76142 0.5 10 2.73858 10 5.5ZM0.603271 5.5C0.603271 7.92825 2.57175 9.89673 5 9.89673C7.42825 9.89673 9.39673 7.92825 9.39673 5.5C9.39673 3.07175 7.42825 1.10327 5 1.10327C2.57175 1.10327 0.603271 3.07175 0.603271 5.5Z" fill="white" stroke="white" stroke-width="1.125" mask="url(#path-1-inside-1_2141_3209)"/>
<path d="M8.08203 9.5L10.1079 12.2745" stroke="white" stroke-width="0.5625" stroke-linecap="round"/>
</svg>
