<svg width="18" height="24" viewBox="0 0 18 24" fill="none" xmlns="http://www.w3.org/2000/svg">
<g id="icon (14) 1">
<path id="Vector" d="M4.3109 17.4545C4.3109 17.5992 4.25277 17.7379 4.14931 17.8402C4.04584 17.9425 3.90552 18 3.7592 18C3.61288 18 3.47255 17.9425 3.36909 17.8402C3.26562 17.7379 3.2075 17.5992 3.2075 17.4545V7.86218L1.943 9.11345C1.89171 9.16417 1.83081 9.2044 1.76379 9.23184C1.69677 9.25929 1.62494 9.27342 1.5524 9.27342C1.40589 9.27342 1.26539 9.21588 1.16179 9.11345C1.0582 9.01103 1 8.87212 1 8.72727C1 8.58243 1.0582 8.44351 1.16179 8.34109L3.36859 6.16036L3.37632 6.15273C3.48031 6.05365 3.61945 5.99885 3.76386 6.00007C3.90827 6.00129 4.04644 6.05845 4.1487 6.15927L6.3555 8.34109C6.40679 8.39173 6.4475 8.45187 6.47529 8.51806C6.50307 8.58426 6.5174 8.65522 6.51745 8.72689C6.5175 8.79856 6.50328 8.86954 6.47558 8.93577C6.44789 9.002 6.40727 9.06219 6.35605 9.11291C6.30483 9.16362 6.244 9.20387 6.17705 9.23134C6.1101 9.25881 6.03833 9.27298 5.96584 9.27303C5.89335 9.27308 5.82156 9.25901 5.75456 9.23163C5.68757 9.20425 5.62669 9.1641 5.57539 9.11345L4.3109 7.86218V17.4545ZM8.7245 7.09091C8.57818 7.09091 8.43785 7.03344 8.33439 6.93115C8.23092 6.82886 8.1728 6.69012 8.1728 6.54545C8.1728 6.40079 8.23092 6.26205 8.33439 6.15976C8.43785 6.05747 8.57818 6 8.7245 6H9.8279C9.97422 6 10.1145 6.05747 10.218 6.15976C10.3215 6.26205 10.3796 6.40079 10.3796 6.54545C10.3796 6.69012 10.3215 6.82886 10.218 6.93115C10.1145 7.03344 9.97422 7.09091 9.8279 7.09091H8.7245ZM8.7245 10.3636C8.57818 10.3636 8.43785 10.3062 8.33439 10.2039C8.23092 10.1016 8.1728 9.96285 8.1728 9.81818C8.1728 9.67352 8.23092 9.53478 8.33439 9.43249C8.43785 9.33019 8.57818 9.27273 8.7245 9.27273H12.0347C12.181 9.27273 12.3213 9.33019 12.4248 9.43249C12.5283 9.53478 12.5864 9.67352 12.5864 9.81818C12.5864 9.96285 12.5283 10.1016 12.4248 10.2039C12.3213 10.3062 12.181 10.3636 12.0347 10.3636H8.7245ZM8.7245 13.6364C8.57818 13.6364 8.43785 13.5789 8.33439 13.4766C8.23092 13.3743 8.1728 13.2356 8.1728 13.0909C8.1728 12.9462 8.23092 12.8075 8.33439 12.7052C8.43785 12.6029 8.57818 12.5455 8.7245 12.5455H14.2415C14.3878 12.5455 14.5281 12.6029 14.6316 12.7052C14.7351 12.8075 14.7932 12.9462 14.7932 13.0909C14.7932 13.2356 14.7351 13.3743 14.6316 13.4766C14.5281 13.5789 14.3878 13.6364 14.2415 13.6364H8.7245ZM8.1728 16.3636C8.1728 16.5083 8.23092 16.647 8.33439 16.7493C8.43785 16.8516 8.57818 16.9091 8.7245 16.9091H16.4483C16.5946 16.9091 16.7349 16.8516 16.8384 16.7493C16.9419 16.647 17 16.5083 17 16.3636C17 16.219 16.9419 16.0802 16.8384 15.9779C16.7349 15.8756 16.5946 15.8182 16.4483 15.8182H8.7245C8.57818 15.8182 8.43785 15.8756 8.33439 15.9779C8.23092 16.0802 8.1728 16.219 8.1728 16.3636Z" fill="white"/>
</g>
</svg>
