<svg width="18" height="24" viewBox="0 0 18 24" fill="none" xmlns="http://www.w3.org/2000/svg">
<g id="icon (18) 1">
<path id="Vector" d="M14.0304 5.44778L14.1632 5.31498C14.2631 5.21507 14.3818 5.13584 14.5124 5.0818C14.6429 5.02775 14.7829 4.99996 14.9242 5C15.0655 5.00004 15.2054 5.02792 15.336 5.08204C15.4665 5.13616 15.5851 5.21546 15.685 5.31542C15.7849 5.41538 15.8642 5.53404 15.9182 5.66462C15.9722 5.7952 16 5.93515 16 6.07647C16 6.21779 15.9721 6.35772 15.918 6.48827C15.8638 6.61882 15.7845 6.73743 15.6846 6.83733L15.5518 6.96925C15.779 7.22404 15.9001 7.55608 15.8903 7.89731C15.8805 8.23853 15.7406 8.56309 15.4992 8.80446L6.32612 17.9787C6.26878 18.0358 6.19699 18.0761 6.11845 18.0955L2.55332 18.9868C2.47872 19.0054 2.40057 19.0043 2.32648 18.9838C2.2524 18.9632 2.18489 18.9238 2.13053 18.8695C2.07616 18.8151 2.03678 18.7476 2.01623 18.6735C1.99567 18.5994 1.99463 18.5213 2.01321 18.4467L2.90449 14.8814C2.92399 14.8032 2.96434 14.7317 3.02125 14.6746L11.615 6.08061C11.529 6.02012 11.4245 5.99195 11.3198 6.00108C11.2151 6.01022 11.117 6.05606 11.0428 6.13053L8.10869 9.06561C8.06725 9.10705 8.01806 9.13992 7.96393 9.16234C7.90979 9.18476 7.85177 9.19631 7.79317 9.19631C7.73458 9.19631 7.67655 9.18476 7.62242 9.16234C7.56828 9.13992 7.51909 9.10705 7.47766 9.06561C7.43622 9.02418 7.40336 8.97499 7.38093 8.92085C7.35851 8.86671 7.34697 8.80869 7.34697 8.75009C7.34697 8.69149 7.35851 8.63347 7.38093 8.57933C7.40336 8.52519 7.43622 8.476 7.47766 8.43456L10.4135 5.50037C10.6551 5.25884 10.9799 5.11891 11.3213 5.10929C11.6627 5.09968 11.9949 5.22111 12.2496 5.44867C12.4945 5.2298 12.8114 5.10874 13.1398 5.10857C13.4682 5.10841 13.7853 5.22915 14.0304 5.44778Z" fill="white"/>
</g>
</svg>
