<svg width="32" height="32" viewBox="0 0 32 32" fill="none" xmlns="http://www.w3.org/2000/svg">
<g id="Cart" clip-path="url(#clip0_106_2154)">
<path id="Vector" d="M0 1.1875C0 0.905707 0.111942 0.635456 0.311199 0.436199C0.510456 0.236942 0.780707 0.125 1.0625 0.125H4.25C4.487 0.125065 4.71718 0.20437 4.90393 0.350303C5.09068 0.496235 5.22327 0.700416 5.28062 0.930375L6.14125 4.375H30.8125C30.9685 4.37514 31.1226 4.40964 31.2637 4.47605C31.4049 4.54245 31.5297 4.63913 31.6293 4.75921C31.7289 4.87929 31.8009 5.01983 31.84 5.17085C31.8792 5.32187 31.8846 5.47965 31.8559 5.633L28.6684 22.633C28.6228 22.8765 28.4936 23.0964 28.3031 23.2547C28.1126 23.413 27.8727 23.4998 27.625 23.5H8.5C8.25229 23.4998 8.01245 23.413 7.82194 23.2547C7.63142 23.0964 7.5022 22.8765 7.45662 22.633L4.27125 5.66488L3.42125 2.25H1.0625C0.780707 2.25 0.510456 2.13806 0.311199 1.9388C0.111942 1.73954 0 1.46929 0 1.1875ZM6.59175 6.5L9.38188 21.375H26.7431L29.5332 6.5H6.59175ZM10.625 23.5C9.49783 23.5 8.41683 23.9478 7.6198 24.7448C6.82277 25.5418 6.375 26.6228 6.375 27.75C6.375 28.8772 6.82277 29.9582 7.6198 30.7552C8.41683 31.5522 9.49783 32 10.625 32C11.7522 32 12.8332 31.5522 13.6302 30.7552C14.4272 29.9582 14.875 28.8772 14.875 27.75C14.875 26.6228 14.4272 25.5418 13.6302 24.7448C12.8332 23.9478 11.7522 23.5 10.625 23.5ZM25.5 23.5C24.3728 23.5 23.2918 23.9478 22.4948 24.7448C21.6978 25.5418 21.25 26.6228 21.25 27.75C21.25 28.8772 21.6978 29.9582 22.4948 30.7552C23.2918 31.5522 24.3728 32 25.5 32C26.6272 32 27.7082 31.5522 28.5052 30.7552C29.3022 29.9582 29.75 28.8772 29.75 27.75C29.75 26.6228 29.3022 25.5418 28.5052 24.7448C27.7082 23.9478 26.6272 23.5 25.5 23.5ZM10.625 25.625C11.1886 25.625 11.7291 25.8489 12.1276 26.2474C12.5261 26.6459 12.75 27.1864 12.75 27.75C12.75 28.3136 12.5261 28.8541 12.1276 29.2526C11.7291 29.6511 11.1886 29.875 10.625 29.875C10.0614 29.875 9.52091 29.6511 9.1224 29.2526C8.72388 28.8541 8.5 28.3136 8.5 27.75C8.5 27.1864 8.72388 26.6459 9.1224 26.2474C9.52091 25.8489 10.0614 25.625 10.625 25.625ZM25.5 25.625C26.0636 25.625 26.6041 25.8489 27.0026 26.2474C27.4011 26.6459 27.625 27.1864 27.625 27.75C27.625 28.3136 27.4011 28.8541 27.0026 29.2526C26.6041 29.6511 26.0636 29.875 25.5 29.875C24.9364 29.875 24.3959 29.6511 23.9974 29.2526C23.5989 28.8541 23.375 28.3136 23.375 27.75C23.375 27.1864 23.5989 26.6459 23.9974 26.2474C24.3959 25.8489 24.9364 25.625 25.5 25.625Z" fill="#FAFBE6"/>
</g>
<defs>
<clipPath id="clip0_106_2154">
<rect width="32" height="32" fill="white"/>
</clipPath>
</defs>
</svg>
