<svg width="8" height="5" viewBox="0 0 8 5" fill="none" xmlns="http://www.w3.org/2000/svg">
<g clip-path="url(#clip0_2277_2408)">
<path fill-rule="evenodd" clip-rule="evenodd" d="M7.96741 -0.19839C8.00395 -0.0502633 8.01003 0.121281 7.9843 0.278508C7.95857 0.435736 7.90314 0.565767 7.83021 0.64L4.13888 4.38839C4.0961 4.43192 4.04892 4.45459 4.00107 4.45459C3.95322 4.45459 3.90604 4.43192 3.86326 4.38839L0.171932 0.64C0.135498 0.603634 0.102968 0.552981 0.0762186 0.490961C0.0494695 0.428942 0.0290294 0.356782 0.016077 0.278643C0.00312424 0.200504 -0.00208378 0.117931 0.000751495 0.0356845C0.00358725 -0.0465622 0.014411 -0.126856 0.032599 -0.200567C0.0507865 -0.274278 0.0759783 -0.339948 0.106722 -0.393792C0.137466 -0.447635 0.173154 -0.488587 0.211729 -0.514286C0.250302 -0.539985 0.291 -0.549923 0.331474 -0.543528C0.371948 -0.537132 0.411398 -0.514528 0.447551 -0.477021L4.00107 3.13018L7.55459 -0.477021C7.62753 -0.551244 7.71199 -0.563587 7.78941 -0.511335C7.86683 -0.459082 7.93085 -0.346513 7.96741 -0.19839Z" fill="white"/>
</g>
<defs>
<clipPath id="clip0_2277_2408">
<rect width="8" height="4" fill="white" transform="translate(0 0.45459)"/>
</clipPath>
</defs>
</svg>
