<svg width="18" height="24" viewBox="0 0 18 24" fill="none" xmlns="http://www.w3.org/2000/svg">
<g id="icon (11) 1">
<path id="Vector" d="M2 7.4168C2.885 7.04973 4.154 6.6539 5.388 6.53088C6.718 6.39795 7.846 6.59338 8.5 7.27691V16.9456C7.565 16.4198 6.38 16.3474 5.287 16.4565C4.107 16.5755 2.917 16.9138 2 17.261V7.4168ZM9.5 7.27691C10.154 6.59338 11.282 6.39795 12.612 6.53088C13.846 6.6539 15.115 7.04973 16 7.4168V17.261C15.082 16.9138 13.893 16.5745 12.713 16.4575C11.619 16.3474 10.435 16.4188 9.5 16.9456V7.27691ZM9 6.38009C8.015 5.53981 6.587 5.41481 5.287 5.54378C3.773 5.69556 2.245 6.21045 1.293 6.64001C1.20565 6.67942 1.13158 6.74294 1.07962 6.82298C1.02767 6.90302 1.00003 6.9962 1 7.0914V18.0041C1.00002 18.0871 1.02104 18.1688 1.06112 18.2416C1.1012 18.3145 1.15906 18.3762 1.22941 18.4211C1.29976 18.466 1.38034 18.4927 1.46378 18.4987C1.54722 18.5047 1.63085 18.4899 1.707 18.4555C2.589 18.0587 4.01 17.5815 5.387 17.4436C6.796 17.3027 7.977 17.5299 8.61 18.3136C8.65685 18.3716 8.71622 18.4183 8.78372 18.4504C8.85122 18.4826 8.92513 18.4993 9 18.4993C9.07487 18.4993 9.14878 18.4826 9.21628 18.4504C9.28378 18.4183 9.34315 18.3716 9.39 18.3136C10.023 17.5299 11.204 17.3027 12.612 17.4436C13.99 17.5815 15.412 18.0587 16.293 18.4555C16.3692 18.4899 16.4528 18.5047 16.5362 18.4987C16.6197 18.4927 16.7002 18.466 16.7706 18.4211C16.8409 18.3762 16.8988 18.3145 16.9389 18.2416C16.979 18.1688 17 18.0871 17 18.0041V7.0914C17 6.9962 16.9723 6.90302 16.9204 6.82298C16.8684 6.74294 16.7944 6.67942 16.707 6.64001C15.755 6.21045 14.227 5.69556 12.713 5.54378C11.413 5.41382 9.985 5.53981 9 6.38009Z" fill="white"/>
</g>
</svg>
