<svg width="34" height="30" viewBox="0 0 34 30" fill="none" xmlns="http://www.w3.org/2000/svg">
<g id="Heart" clip-path="url(#clip0_106_2152)">
<path id="Vector" d="M17 11.2515L15.1003 7.44987C14.6285 6.5085 13.8104 5.15487 12.6523 4.0605C11.5133 2.98312 10.149 2.25 8.5 2.25C4.9385 2.25 2.125 5.06775 2.125 8.455C2.125 11.0284 3.30225 12.8453 6.0945 15.6163C6.81063 16.326 7.62663 17.0931 8.52975 17.9389C10.8842 20.1489 13.8125 22.8986 17 26.5749C20.1875 22.8986 23.1157 20.1489 25.4702 17.9389C26.3734 17.0931 27.1915 16.3239 27.9055 15.6163C30.6978 12.8453 31.875 11.0284 31.875 8.455C31.875 5.06775 29.0615 2.25 25.5 2.25C23.8489 2.25 22.4867 2.98312 21.3477 4.0605C20.1896 5.15487 19.3715 6.5085 18.8997 7.44987L17 11.2515ZM17.833 28.872C17.7307 28.9932 17.6031 29.0906 17.4592 29.1575C17.3154 29.2243 17.1586 29.2589 17 29.2589C16.8414 29.2589 16.6846 29.2243 16.5408 29.1575C16.3969 29.0906 16.2693 28.9932 16.167 28.872C12.7649 24.8302 9.68575 21.9403 7.15063 19.5624C2.7625 15.442 0 12.8516 0 8.455C0 3.85438 3.80375 0.125 8.5 0.125C11.9 0.125 14.2779 2.35625 15.7335 4.392C16.286 5.16762 16.7068 5.9135 17 6.5C17.368 5.76617 17.7914 5.06146 18.2665 4.392C19.7221 2.35412 22.1 0.125 25.5 0.125C30.1963 0.125 34 3.85438 34 8.455C34 12.8516 31.2375 15.442 26.8494 19.5624C24.3143 21.9424 21.2351 24.8345 17.833 28.872Z" fill="#FAFBE6"/>
</g>
<defs>
<clipPath id="clip0_106_2152">
<rect width="34" height="30" fill="white"/>
</clipPath>
</defs>
</svg>
