<svg width="29" height="30" viewBox="0 0 29 30" fill="none" xmlns="http://www.w3.org/2000/svg">
<g id="Profile">
<path id="Vector" d="M2.9375 28.875C2.9375 28.875 0.625 28.875 0.625 26.5625C0.625 24.25 2.9375 17.3125 14.5 17.3125C26.0625 17.3125 28.375 24.25 28.375 26.5625C28.375 28.875 26.0625 28.875 26.0625 28.875H2.9375ZM14.5 15C16.3399 15 18.1045 14.2691 19.4056 12.9681C20.7066 11.667 21.4375 9.90244 21.4375 8.0625C21.4375 6.22256 20.7066 4.45798 19.4056 3.15695C18.1045 1.85591 16.3399 1.125 14.5 1.125C12.6601 1.125 10.8955 1.85591 9.59445 3.15695C8.29341 4.45798 7.5625 6.22256 7.5625 8.0625C7.5625 9.90244 8.29341 11.667 9.59445 12.9681C10.8955 14.2691 12.6601 15 14.5 15Z" fill="#FAFBE6"/>
</g>
</svg>
