<svg width="22" height="45" viewBox="0 0 22 45" fill="none" xmlns="http://www.w3.org/2000/svg">
<g id="I">
<path d="M1.625 0.9375C3.04167 1.10417 4.22917 1.22917 5.1875 1.3125C6.1875 1.35417 7 1.41667 7.625 1.5C8.375 1.58333 8.95833 1.625 9.375 1.625C9.83333 1.66667 10.5208 1.64583 11.4375 1.5625C12.2292 1.47917 13.2917 1.375 14.625 1.25C16 1.125 17.75 0.9375 19.875 0.6875C18.9167 1.52083 18.1458 2.33333 17.5625 3.125C17.0208 3.875 16.6042 4.54167 16.3125 5.125C15.9375 5.83333 15.7083 6.5 15.625 7.125C15.4583 8.125 15.3125 9.5 15.1875 11.25C15.1042 12.9583 15.0208 14.8333 14.9375 16.875C14.8542 18.9167 14.8125 21.0208 14.8125 23.1875C14.8125 25.3542 14.8333 27.4167 14.875 29.375C14.9583 31.2917 15.0833 33 15.25 34.5C15.4583 36 15.7083 37.0833 16 37.75C16.4167 38.5 16.8542 39.25 17.3125 40C17.7292 40.625 18.2292 41.2708 18.8125 41.9375C19.3958 42.6042 20.0625 43.1458 20.8125 43.5625C18.3542 43.4375 16.3958 43.375 14.9375 43.375H12.6875C12.0208 43.375 11.1667 43.4167 10.125 43.5C9.25 43.5833 8.14583 43.6667 6.8125 43.75C5.47917 43.8333 3.875 43.9583 2 44.125C2.95833 43.0833 3.70833 42.0833 4.25 41.125C4.79167 40.1667 5.22917 39.3333 5.5625 38.625C5.9375 37.7917 6.1875 37 6.3125 36.25C6.47917 35.1667 6.60417 33.8333 6.6875 32.25C6.8125 30.625 6.89583 28.8958 6.9375 27.0625C6.97917 25.1875 6.97917 23.2917 6.9375 21.375C6.9375 19.4167 6.89583 17.5417 6.8125 15.75C6.72917 13.9583 6.60417 12.3333 6.4375 10.875C6.3125 9.41667 6.14583 8.25 5.9375 7.375C5.8125 6.83333 5.5625 6.22917 5.1875 5.5625C4.85417 4.97917 4.39583 4.3125 3.8125 3.5625C3.27083 2.77083 2.54167 1.89583 1.625 0.9375Z" fill="#FF8882"/>
<path d="M2.6151 1.70654C3.06635 2.1914 3.61315 2.84734 4.01072 3.42688L4.00208 3.41505C4.04629 3.47133 4.08895 3.52619 4.13036 3.57995C4.26927 3.76111 4.18703 3.67842 4.28151 3.80453C4.46546 4.05168 4.64281 4.27865 4.81361 4.5325C4.86989 4.61674 4.77858 4.52629 4.83781 4.61453C5.02521 4.89493 5.20373 5.1701 5.37188 5.45714C5.49277 5.66712 5.60775 5.88125 5.71468 6.10854C5.89649 6.49619 6.0525 6.89983 6.15207 7.32548C6.42625 8.49584 6.55688 9.674 6.6639 10.8556C6.80895 12.1044 6.91232 13.3683 6.98774 14.6492C7.00791 14.9921 7.02412 15.3609 7.03822 15.7395C7.06371 16.4188 7.08212 17.1272 7.11216 17.7628C7.11765 17.8784 7.14794 17.8085 7.15134 17.8305C7.20354 18.1743 7.13402 18.0614 7.1317 18.2868C7.12237 19.1815 7.1338 20.175 7.15148 21.0353C7.15876 21.3917 7.2221 21.0532 7.19151 21.375C7.1908 21.3783 7.19008 21.3876 7.1893 21.3975C7.18733 21.4231 7.14849 21.331 7.14703 21.4315C7.14389 21.6592 7.15922 22.0908 7.15922 22.2672C7.15912 22.6072 7.16025 22.6635 7.16382 22.985C7.16823 23.4246 7.15286 23.9474 7.16146 24.419C7.16342 24.5197 7.20222 24.3865 7.20884 24.5471C7.21559 24.7079 7.21092 25.1331 7.20062 25.2764C7.19047 25.4197 7.1601 25.3584 7.15288 25.3837C7.09205 25.5918 7.16885 26.0843 7.16993 26.1477C7.17526 26.465 7.1734 26.7699 7.16705 27.0676C7.1498 27.8532 7.10134 28.5882 7.0672 29.373C7.03197 30.188 6.99782 31.0596 6.9401 31.8357C6.93962 31.8421 6.93914 31.8485 6.93866 31.855C6.92818 31.995 6.91711 32.1324 6.90564 32.2668C6.85916 33.0216 6.79765 33.7058 6.72903 34.474C6.7203 34.5696 6.77792 34.4622 6.76726 34.5787C6.71431 35.151 6.6478 35.7202 6.55699 36.2876C6.4392 36.9671 6.22911 37.6188 5.96148 38.2402C5.91137 38.3555 5.93397 38.1899 5.88141 38.304C5.82663 38.4224 5.76375 38.5511 5.69579 38.685C5.35518 39.3323 4.90958 40.1004 4.86024 40.5C4.73024 40.7308 4.58418 40.9859 4.43696 41.2307C4.29624 41.465 4.14779 41.685 4.01025 41.8646C3.82629 42.1015 3.95045 41.8358 3.76093 42.1495C3.71747 42.2199 3.81098 42.1538 3.74297 42.2577C3.45564 42.6955 3.09435 43.1378 2.77652 43.5447C2.71181 43.6276 2.75706 43.6282 2.74253 43.6551C2.61904 43.8801 2.27731 44.1344 2.21144 44.1964C2.18938 44.2175 2.16757 44.2385 2.14599 44.2593L1.98244 43.9274C2.62316 43.9094 3.10344 43.8518 3.71127 43.803C3.85881 43.7912 3.68078 43.7588 3.82233 43.7458C4.55877 43.6792 5.32235 43.6252 6.04617 43.5965C6.2072 43.5902 6.06225 43.6399 6.13914 43.6389C6.45134 43.6348 6.53605 43.5675 6.80021 43.5533C6.82365 43.5521 6.84843 43.5513 6.87479 43.5509C6.94314 43.55 6.90687 43.5862 6.91954 43.5892C7.11831 43.6352 7.28238 43.5416 7.33252 43.5365C7.96476 43.4701 8.37631 43.5277 8.98752 43.4677C9.06052 43.4604 8.89218 43.431 9.09773 43.413C9.43103 43.3834 9.7685 43.3532 10.1079 43.321C10.9651 43.2535 11.8364 43.2059 12.6875 43.2211C12.8937 43.2252 13.0984 43.2299 13.301 43.235C13.513 43.2402 13.3617 43.2718 13.375 43.2757C13.5924 43.3366 13.733 43.2551 13.8021 43.2521C14.2164 43.2355 14.6099 43.271 14.9375 43.2467C15.0407 43.239 15.1381 43.2256 15.2279 43.203C17.1024 43.2441 18.9647 43.2965 20.8196 43.4233L20.7448 43.6844C20.3599 43.4615 19.9974 43.2015 19.6657 42.9091C19.6435 42.8896 19.7088 42.8932 19.6646 42.8546C19.1456 42.3772 19.2127 42.5071 18.8312 42.2179C18.7934 42.1879 18.7421 42.117 18.6949 42.0404C18.6252 41.9271 18.5625 41.8025 18.5531 41.7855C18.4969 41.6828 18.6175 41.7362 18.5962 41.7041C18.4198 41.4386 18.3065 41.6005 18.0364 41.2642C18.0282 41.2535 18.0906 41.2761 18.0708 41.2457C18.0094 41.1513 17.9301 41.0722 17.8727 40.9779C17.7423 40.761 17.7611 40.6374 17.4967 40.3568C17.4638 40.3207 17.4169 40.4449 17.2047 40.1226C17.1985 40.1131 17.1907 40.1012 17.1816 40.0873C17.0708 39.9045 16.7656 39.3972 16.6828 39.2427C16.5928 39.0764 16.6879 39.171 16.6823 39.1586C16.464 38.6971 16.5777 38.854 16.5075 38.6007C16.4379 38.3475 16.3367 38.4868 16.2699 38.4053C16.2029 38.3237 16.0519 37.9808 16.0187 37.8945C15.9852 37.8084 16.0595 37.8976 16.0262 37.823C16.0149 37.7977 16.0042 37.7744 15.9942 37.7532C15.8568 37.3412 15.8508 37.6264 15.7683 37.4745C15.5715 37.0881 15.6028 36.7353 15.5287 36.3595C15.5092 36.2574 15.5019 36.3462 15.4797 36.2557C15.3942 35.898 15.3887 35.6743 15.2878 35.2685C15.2709 35.2018 15.1507 34.8791 15.1701 34.6546C15.1729 34.6231 15.2132 34.706 15.1977 34.5506C15.1964 34.537 15.195 34.5227 15.1934 34.5079C15.1752 34.2681 15.1407 33.8834 15.1096 33.6491C15.0853 33.4658 15.0589 33.6812 15.0517 33.4478C15.0486 33.3441 15.0931 33.5329 15.0852 33.338C15.077 33.1448 15.0345 32.6521 15.0195 32.4645C15.0041 32.2773 14.9772 32.3825 14.9737 32.3676C14.953 32.2767 14.9103 31.9184 14.9083 31.8866C14.8463 31.0263 14.8179 30.2006 14.7945 29.3785C14.7901 28.6665 14.7859 27.9594 14.768 27.2346C14.7651 27.1119 14.7307 27.1941 14.7299 27.1754C14.7102 26.7555 14.808 27.0854 14.836 26.7917C14.7649 26.835 14.7758 26.6616 14.7651 26.3658C14.7599 26.2233 14.733 26.3012 14.7301 26.2882C14.6863 26.077 14.7393 25.9293 14.75 25.8913C14.7895 25.7509 14.7404 25.5988 14.7669 25.5034C14.7931 25.408 14.8344 25.6269 14.8319 25.3431C14.8061 25.2638 14.7412 25.4748 14.7292 25.2595C14.6994 24.7249 14.7105 23.8856 14.7247 23.1875C14.732 22.8239 14.7406 22.4988 14.7438 22.2749C14.7534 21.6224 14.7519 21.4116 14.7657 21.0316C14.7917 20.3451 14.7409 20.5962 14.7274 20.1693C14.7147 19.7411 14.8254 19.9513 14.8513 19.8903C14.8772 19.8306 14.8532 19.7642 14.8684 19.6894C14.8835 19.615 14.8968 19.7771 14.9057 19.6015C14.9143 19.4257 14.8826 18.9438 14.859 18.8806C14.8087 18.7473 14.7454 18.9625 14.7792 18.4973C14.7812 18.4705 14.8084 18.5583 14.8145 18.4559C14.845 17.9357 14.8698 17.4025 14.8992 16.8734C14.9157 16.5746 14.9329 16.2771 14.9523 15.9841C14.9598 15.8726 14.9878 15.9739 14.9925 15.9088C15.0414 15.2323 14.9771 15.4719 14.9334 15.0981C15.0094 15.1849 15.0667 14.9816 15.0892 14.4676C15.1029 14.1585 15.0662 14.2103 15.0509 14.0091C15.0462 13.949 15.0795 13.7313 15.0652 13.6908C15.0186 13.5578 14.9504 13.761 14.9983 13.2321C15.0005 13.2089 15.0257 13.2844 15.0311 13.2039C15.0665 12.6851 15.0151 12.6203 15.0358 12.0586C15.0438 11.8443 15.0648 11.549 15.0879 11.2451C15.1197 10.9218 15.1554 10.5918 15.1794 10.3351C15.2626 10.3523 15.2828 9.8792 15.2435 9.68202C15.2758 9.35815 15.3079 9.00685 15.3507 8.6946C15.3654 8.58763 15.3813 8.66073 15.3854 8.64753C15.449 8.44348 15.4112 8.29721 15.4178 8.22652C15.456 7.82826 15.5128 7.4696 15.5743 7.11655C15.6202 6.79376 15.6972 6.47832 15.7923 6.14222C15.7998 6.11763 15.7596 6.05735 15.8684 5.88781C15.8757 5.8774 15.8103 6.11123 15.939 5.79157C16.0116 5.61648 16.1364 5.36397 16.2779 5.10666C16.388 4.89364 16.5087 4.67594 16.608 4.48526C16.6605 4.38288 16.776 4.10991 16.9326 3.93231C16.9535 3.90865 16.9477 3.9456 16.9795 3.91249C17.0815 3.80601 17.0808 3.71007 17.2147 3.59448C17.3056 3.51629 17.4403 3.36574 17.599 3.15136C17.6743 3.0517 17.7563 2.93842 17.8438 2.81264C17.8526 2.80023 17.8904 2.68535 17.9877 2.57006C18.1423 2.38567 18.3759 2.13652 18.5483 1.95428C18.6309 1.86683 18.5595 1.90522 18.5735 1.88974C19.0158 1.41141 19.3913 1.07855 19.8661 0.67722L19.8766 0.701029C19.7259 0.716246 19.5694 0.732193 19.401 0.749898C19.2432 0.766601 18.7944 0.851464 18.4858 0.860074C18.1477 0.869618 18.4786 0.71415 17.7117 0.829161C17.4031 0.8755 17.0242 1.06372 16.4578 1.04747C15.8311 1.12391 15.2288 1.17563 14.623 1.22748C14.1821 1.26637 13.7395 1.30839 13.2828 1.36313C13.2343 1.36896 13.083 1.42133 12.9679 1.43195C12.7973 1.44768 12.7017 1.43959 12.5797 1.45051C12.1832 1.48568 11.8136 1.53101 11.4386 1.573C11.3297 1.58364 11.2204 1.5933 11.1097 1.60151C10.9221 1.61497 10.9865 1.59332 10.7629 1.60724C10.5394 1.61991 10.3915 1.65129 10.0874 1.64693C9.8709 1.64219 9.65361 1.60303 9.37989 1.57121C9.35915 1.5705 9.34242 1.57006 9.32606 1.56967C9.31451 1.61325 9.1055 1.61342 8.73427 1.60076C8.66313 1.5983 8.73833 1.61838 8.70456 1.61797C8.56674 1.61647 8.44065 1.59392 8.30998 1.59089C8.27811 1.5901 8.27527 1.60452 8.24927 1.60464C8.04107 1.60635 7.71378 1.54364 7.62222 1.525C7.61553 1.52355 7.61045 1.5224 7.60656 1.52152C7.37217 1.46947 7.25881 1.47642 7.07729 1.44955C6.89582 1.42355 7.16939 1.43953 6.95683 1.41418C6.51567 1.36206 5.94605 1.32868 5.49578 1.30716C5.31613 1.29865 5.43787 1.32235 5.41214 1.32155C5.3368 1.319 5.26186 1.31567 5.18751 1.31221C4.89683 1.28547 4.62583 1.25367 4.4596 1.26548C4.21172 1.15071 4.23526 1.25303 3.70856 1.18033C3.667 1.1745 3.61824 1.12773 3.7789 1.13805C3.93914 1.14827 4.18032 1.18576 4.40325 1.1974C4.45624 1.20043 4.76041 1.18839 4.80203 1.18944C5.12525 1.19892 5.16542 1.267 5.18194 1.27218C5.18485 1.27303 5.1878 1.27386 5.19079 1.27468C5.38388 1.31781 5.74511 1.2927 5.84139 1.29507C6.28733 1.30516 6.66498 1.34172 7.03779 1.36656C7.2815 1.38362 7.31041 1.34142 7.50181 1.36512C7.55034 1.3713 7.59669 1.37781 7.6404 1.38447C8.16463 1.45039 8.39165 1.5268 8.94353 1.50389C9.06894 1.49586 8.95243 1.44767 9.375 1.48898L9.38731 1.48954C9.39466 1.49085 9.40226 1.4922 9.41011 1.49357C9.43636 1.50071 9.7698 1.55489 9.96577 1.52643C9.99048 1.52314 9.98931 1.50768 10.0216 1.50591C10.2379 1.49361 10.3826 1.49992 10.619 1.48025C10.8551 1.4603 11.1386 1.42871 11.4093 1.40856C11.4139 1.40821 11.4187 1.40788 11.4234 1.40757C11.5826 1.39475 11.786 1.40191 11.8627 1.40113C12.0857 1.39921 12.3199 1.33983 12.4589 1.35186C12.5995 1.3641 12.3339 1.43071 12.6973 1.41166C12.7067 1.36765 12.7331 1.32074 12.7504 1.27558C13.374 1.21334 13.9896 1.16172 14.6114 1.10447C14.7816 1.08927 14.9517 1.0732 15.1225 1.05592C15.2211 1.04588 15.1179 1.03169 15.2234 1.02022C15.669 0.971611 16.0598 0.948345 16.5211 0.891375C16.8788 0.847076 17.267 0.776835 17.6406 0.727179C17.8743 0.755344 18.428 0.673099 18.8308 0.630466C18.9725 0.615518 18.9641 0.631489 19.0655 0.624408C19.4463 0.597474 19.2629 0.569302 19.3658 0.549155C19.5931 0.504577 19.7164 0.511224 19.8552 0.519355L20.4006 0.456449L19.9861 0.815258C19.8748 0.881991 19.752 0.95471 19.5645 1.12827C19.5434 1.14665 19.3369 1.42396 19.3068 1.45942C19.1109 1.68382 19.2563 1.47786 19.1203 1.60455C18.8734 1.83738 18.6974 1.99602 18.4445 2.3036C18.3705 2.39341 18.2182 2.62754 18.0537 2.78228C18.0321 2.80261 18.0261 2.77675 18.0101 2.79448C17.7985 3.03364 17.7728 3.12629 17.7208 3.24167C17.7039 3.28156 17.6831 3.3259 17.6508 3.38165C17.526 3.59577 17.2761 3.88548 17.2227 3.94359C17.0825 4.09436 17.2958 3.80525 17.2997 3.79469C17.3386 3.66468 17.1878 3.89932 17.0704 4.07692C16.9976 4.06648 16.8422 4.32219 16.9498 4.26166C16.9615 4.25468 17.0445 4.11117 17.0704 4.07692C17.0239 4.26976 16.8598 4.54802 16.6327 4.8325C16.5366 4.95547 16.5631 4.83277 16.3974 5.16744C16.3808 5.19979 16.364 5.23364 16.3454 5.27223C16.2465 5.48244 16.3277 5.42252 16.2535 5.61209C16.0855 6.04323 15.8522 6.59946 15.7934 7.06981C15.7872 7.11581 15.787 7.13752 15.789 7.14687C15.7903 7.16419 15.7968 7.15705 15.802 7.1545C15.805 7.14762 15.8069 7.1473 15.8082 7.14943C15.8096 7.15936 15.8098 7.17115 15.8057 7.20087C15.7622 7.51664 15.7042 7.79279 15.6745 8.11278C15.6718 8.14174 15.7082 8.07466 15.6963 8.17388C15.6089 8.92528 15.53 9.5816 15.4662 10.3719C15.4477 10.6028 15.428 10.9438 15.4099 11.2659C15.403 11.4719 15.3956 11.6741 15.3873 11.8312C15.351 12.5198 15.2711 13.365 15.2568 13.9542C15.2474 14.3381 15.2811 14.2555 15.2949 14.4207C15.3218 14.7399 15.2277 15.2984 15.2134 15.3737C15.2129 15.3759 15.2191 15.0454 15.1964 15.221C15.1596 15.3219 15.2134 15.37 15.2134 15.3737C15.2042 15.4229 15.1709 16.0826 15.1717 16.2139C15.1721 16.2852 15.2028 16.2466 15.2025 16.2838C15.2007 16.4842 15.1979 16.6847 15.1943 16.8855C15.182 17.568 15.1632 18.2525 15.1358 18.9432C15.1348 18.959 15.1018 18.9344 15.0999 18.9714C15.0726 19.4887 15.1076 19.8212 15.1257 20.2485C15.1439 20.6758 15.1323 21.014 15.071 21.2661C15.0753 21.5884 15.0465 22.0503 15.0297 22.3163C15.0129 22.5823 15.0808 22.6197 15.0821 22.6431C15.0937 22.8434 15.0996 23.0203 15.1019 23.1875C15.108 23.6303 15.0877 24.0033 15.0867 24.5534C15.0858 24.9138 15.1021 25.6284 15.1144 26.0183C15.1241 26.3265 15.11 26.5124 15.1245 26.7963C15.1265 26.8347 15.1572 26.7955 15.1586 26.8072C15.2007 27.1236 15.1219 26.9724 15.1091 27.0379C15.0629 27.2758 15.0383 27.4229 15.0687 27.8285C15.0756 27.9221 15.1918 28.193 15.2019 28.3635C15.2146 28.5851 15.1729 28.502 15.1875 28.7342C15.1887 28.7541 15.2133 28.7493 15.2154 28.8928C15.2177 29.0481 15.2197 29.207 15.2217 29.3676C15.2397 29.8865 15.2609 30.4348 15.2957 30.9626C15.3018 31.0566 15.3341 30.9338 15.3437 31.0694C15.3889 31.7065 15.4399 32.4037 15.4765 33.0243C15.4854 33.1771 15.4485 33.084 15.4431 33.1178C15.4104 33.3255 15.5122 33.6066 15.5185 33.6538C15.5554 33.9358 15.5862 34.2019 15.6147 34.4595L15.6134 34.4495C15.7222 35.2156 15.8016 35.9197 16.0399 36.7329C16.056 36.7947 16.2644 37.2171 16.2747 37.4248C16.2752 37.434 16.2768 37.5193 16.3083 37.6151L16.2942 37.5866C16.3216 37.6478 16.3596 37.7132 16.4112 37.7668C16.4197 37.7755 16.3863 37.6412 16.4976 37.846C16.6089 38.0508 16.8169 38.3635 16.9436 38.6605C16.9837 38.7544 17.0428 38.9982 17.248 39.2285C17.2613 39.2439 17.6146 39.5759 17.625 39.7646C17.6256 39.7775 17.6089 39.7896 17.6065 39.8203L17.5992 39.8089C17.5973 39.8504 17.6231 39.9268 17.7645 40.0794C17.8114 40.1295 17.7578 40.0168 17.872 40.1548C18.0471 40.3656 18.2452 40.6719 18.49 40.9085C18.5327 40.9501 18.7406 41.1028 18.832 41.288C18.8464 41.3171 18.7829 41.292 18.8489 41.3757C18.9305 41.4788 19.0161 41.5809 19.1042 41.6822C19.347 41.9619 19.6205 42.2201 19.891 42.4687C20.0215 42.5868 19.9179 42.571 20.0544 42.6967C20.1902 42.8232 20.4904 43.049 20.6695 43.1283C20.8475 43.2075 20.7101 43.0292 20.9608 43.1666C20.9792 43.1764 20.9977 43.1862 21.0162 43.1959L20.7912 43.9814C19.4994 43.9449 18.2237 43.8431 16.9368 43.8025C16.7421 43.7966 16.9029 43.8311 16.6169 43.8251C16.1558 43.8159 15.5485 43.8118 14.9375 43.8138C14.1433 43.8165 13.3379 43.8108 12.8206 43.7742C12.7682 43.7705 12.7242 43.7668 12.6875 43.7632C12.2186 43.7188 12.9659 43.6767 12.4522 43.6611C12.1841 43.6544 11.8972 43.7675 11.833 43.7734C11.2029 43.8333 10.7597 43.8199 10.1897 43.8789C10.175 43.8804 10.164 43.8823 10.1557 43.8844C10.1037 43.8993 10.1852 43.9236 10.0964 43.9339C9.74978 43.9741 9.38417 43.9869 9.05328 44.0169C8.90479 44.0305 8.93457 44.0599 8.79784 44.0682C8.47028 44.0882 8.18046 44.096 7.85988 44.0885C7.83068 44.0878 8.02353 44.0347 7.78179 44.05C7.49893 44.068 7.16615 44.0742 6.83425 44.098C6.70778 44.1071 6.58115 44.1192 6.45735 44.136C6.32559 44.154 6.32472 44.2271 6.03617 44.1967C5.97581 44.1904 6.04568 44.0972 5.7187 44.1967C5.66367 44.2131 5.11239 44.3567 4.83372 44.3124C4.76002 44.3007 4.56992 44.2433 4.41107 44.2673C4.3895 44.2709 4.47958 44.3032 4.34725 44.3177C3.88202 44.3679 3.393 44.4046 2.91481 44.4584C2.78725 44.4729 2.98111 44.4971 2.79099 44.5174C2.55905 44.5422 2.30115 44.5655 2.04106 44.5869L0.847035 44.6924L1.65874 43.811C1.87845 43.5757 2.09729 43.3361 2.28347 43.126C2.40645 42.9869 2.35005 43.1071 2.3616 43.0991C2.54774 42.9702 2.56528 42.818 2.60652 42.7589C2.8631 42.3911 3.09632 42.1406 3.32018 41.7961C3.38168 41.7008 3.30435 41.7455 3.31415 41.7249C3.41557 41.5127 3.37726 41.6958 3.46509 41.5767C3.61308 41.3746 3.75663 41.1489 3.88618 40.9194C3.97371 40.7644 4.05815 40.6098 4.13851 40.4603C4.21289 40.3215 4.08795 40.4548 4.1551 40.3303C4.49192 39.7033 4.83484 39.0545 5.14679 38.4294C5.19517 38.3284 5.24523 38.2208 5.29357 38.1137C5.35462 37.9776 5.35126 38.0775 5.37042 38.0517C5.50437 37.873 5.53937 37.5498 5.5545 37.48C5.62646 37.1601 5.69082 37.048 5.7566 36.769C5.80032 36.5775 5.83938 36.3792 5.87085 36.1764C6.05458 34.8933 6.18047 33.4085 6.25332 32.2271L6.254 32.2167C6.25463 32.2092 6.25527 32.2018 6.2559 32.1945C6.26767 32.0571 6.27901 31.9221 6.28996 31.7891C6.42032 30.1835 6.50707 28.8697 6.54337 27.2805C6.54579 27.171 6.49696 27.2801 6.49844 27.186C6.4992 27.1415 6.49999 27.0971 6.50078 27.0526C6.52111 25.8813 6.55055 24.7256 6.53711 23.55C6.53604 23.4499 6.49392 23.5944 6.49078 23.4338C6.48405 23.1042 6.48436 22.6868 6.49463 22.3534C6.49954 22.1907 6.53739 22.4083 6.5415 22.2445C6.54844 21.9663 6.54871 21.6736 6.54292 21.3836C6.54302 21.2674 6.54238 21.1604 6.54094 21.0545C6.53856 20.888 6.49585 21.1395 6.49605 20.9229C6.49564 19.448 6.47326 18.0009 6.47677 16.5095C6.47701 16.4074 6.55251 16.3144 6.52951 16.0979C6.50728 16.0824 6.48187 16.0844 6.4585 16.0783C6.45422 15.9745 6.4499 15.8707 6.44553 15.7671C6.3766 14.1405 6.29294 12.5262 6.13288 10.9098C6.10294 10.4909 6.06852 10.0818 6.02586 9.6721C6.01647 9.58253 5.99904 9.74156 5.9806 9.56774C5.90206 8.84603 5.80207 8.1424 5.65628 7.44196C5.60272 7.17766 5.52417 6.91318 5.42894 6.64739C5.39399 6.55387 5.46545 6.58012 5.33808 6.31121C5.31799 6.26307 5.11463 5.86233 5.04763 5.76602C5.03872 5.75292 5.05713 5.83632 4.98805 5.70909C4.98327 5.70035 4.97846 5.69158 4.97363 5.6828C4.5939 5.00492 4.12467 4.32516 3.65481 3.68515L3.64763 3.67531C3.61879 3.63059 3.58952 3.58579 3.56016 3.54138C3.48448 3.42752 3.5841 3.53546 3.52996 3.45426C3.14409 2.87863 2.65639 2.29813 2.23099 1.78546C1.9445 1.44327 2.0752 1.54746 1.93673 1.35203C1.91732 1.32438 1.72919 1.12048 1.73099 1.09944C1.73497 1.04503 1.85971 1.11186 1.85323 1.04229C1.85244 1.03081 1.69316 0.872633 1.69853 0.86717C1.69853 0.867169 1.69853 0.867168 1.69853 0.867167C1.7002 0.865574 1.71636 0.8773 1.75507 0.909786C1.76684 0.919422 1.96051 1.10891 2.0121 1.15198C2.04812 1.18182 2.00255 1.11009 2.07308 1.17365C2.14398 1.23758 2.20501 1.3223 2.31871 1.43165C2.43225 1.54126 2.40051 1.47617 2.6151 1.70654ZM14.9577 23.5147C14.9255 23.7613 15.046 23.7975 15.0164 23.5309C15.0148 23.518 14.9593 23.502 14.9577 23.5147ZM14.3277 1.19461C14.4435 1.196 14.545 1.18784 14.6181 1.17634C14.7486 1.1561 14.7854 1.12477 14.6382 1.12112C14.6298 1.12091 14.6215 1.1208 14.6133 1.1208C14.3959 1.12175 14.2325 1.19359 14.3277 1.19461ZM11.003 1.5451C11.3801 1.54076 11.4298 1.43066 11.031 1.48526C11.0081 1.48828 10.9808 1.5453 11.003 1.5451ZM2.67131 2.17333C2.67004 2.17015 2.5417 2.01803 2.53767 2.01494C2.45374 1.94748 2.7099 2.25195 2.67131 2.17333ZM7.69808 1.48247C7.81383 1.50862 8.15185 1.52678 8.00834 1.49632C7.89254 1.47237 7.55462 1.45076 7.69808 1.48247ZM15.5895 36.3352C15.5884 36.3399 15.6185 36.4791 15.6289 36.4739C15.6613 36.456 15.6078 36.265 15.5895 36.3352ZM2.08291 0.970171C2.91013 1.06698 3.40547 1.19068 2.50402 1.08146C2.34092 1.06159 2.85865 1.09984 2.65121 1.07021C2.27212 1.0165 2.01491 1.02879 1.62952 0.960731C1.56001 0.948668 2.03561 0.964743 2.08439 0.970247C2.0839 0.970221 2.08341 0.970196 2.08291 0.970171ZM14.8136 23.6569C14.812 23.6619 14.8108 23.8597 14.8124 23.8646C14.8509 23.9717 14.8531 23.5729 14.8136 23.6569ZM20.115 43.2032C20.1198 43.2156 20.5057 43.4733 20.5224 43.4751C20.7605 43.5445 19.9872 43.0313 20.115 43.2032ZM15.1823 10.3275C15.167 10.1095 15.1862 9.85079 15.2434 9.68301C15.2214 9.897 15.2023 10.1124 15.1823 10.3275Z" fill="black"/>
</g>
</svg>
